<svg width="1271" height="241" viewBox="0 0 1271 241" fill="none" xmlns="http://www.w3.org/2000/svg">
<g clip-path="url(#clip0_112_1342)">
<path d="M197.301 133.1C188.401 126 175.501 127.5 168.401 136.4L123.301 110.9V110.8C124.701 107.5 125.401 104 125.401 100.5C125.401 97.0003 124.701 93.4003 123.301 90.1003V90.0003L156.501 71.4003C159.501 74.8003 163.901 76.7003 168.401 76.7003C177.001 76.6003 183.901 69.6003 183.801 61.1003C183.701 52.5003 176.701 45.6003 168.101 45.7003C159.501 45.8003 152.601 52.8003 152.701 61.3003C152.801 62.8003 153.001 64.3003 153.501 65.8003V65.9003L120.301 84.5003C111.901 72.8003 95.8006 69.8003 83.7006 77.7003L75.1006 67.4003V67.3003C77.3006 64.6003 78.4006 61.2003 78.4006 57.8003C78.3006 49.4003 71.4006 42.6003 63.0006 42.7003C54.6006 42.8003 47.8006 49.7003 47.9006 58.0003C48.0006 66.4003 54.9006 73.2003 63.3006 73.1003C65.7006 73.0003 68.1006 72.4003 70.2006 71.3003L78.8006 81.6003V81.7003C74.1006 86.6003 71.6006 92.9003 71.3006 99.3003C71.1006 105.7 73.1006 112.1 77.5006 117.3V117.4L60.1006 135.4C52.9006 130.2 43.2006 130.3 36.1006 135.6C30.5006 139.8 27.7006 146.3 27.9006 152.8C28.1006 156.7 29.4006 160.7 31.9006 164.1C38.6006 173.1 51.4006 175 60.5006 168.3C66.1006 164.1 68.9006 157.6 68.7006 151.1C68.5006 147.2 67.2006 143.2 64.7006 139.8V139.7L82.1006 121.7C86.8006 125.3 92.6006 127.3 98.5006 127.3C100.901 127.3 103.401 126.9 105.701 126.2L122.801 167.8V167.9C119.401 170.4 117.501 174.3 117.501 178.4C117.601 185.6 123.501 191.5 130.701 191.4C137.901 191.3 143.801 185.4 143.701 178.3C143.601 171.1 137.701 165.2 130.501 165.3C129.901 165.3 129.301 165.4 128.701 165.5L111.601 123.9V123.8C115.001 121.9 118.001 119.3 120.301 116.2L165.401 141.7V141.8C164.401 144.3 164.001 146.8 164.001 149.3C164.001 160.6 173.301 169.7 184.601 169.6C190.901 169.6 196.901 166.7 200.601 161.9C203.701 158 205.101 153.4 205.101 148.8C205.001 142.9 202.301 137.1 197.301 133.1Z" fill="white"/>
<path d="M223.3 14.4L223.1 14.2C222.8 13.8 222.5 13.4 222.2 13.1C222.1 12.9 221.9 12.8 221.8 12.6C221.6 12.3 221.3 12.1 221.1 11.8C220.9 11.6 220.7 11.4 220.5 11.2C220.3 11 220.1 10.8 219.9 10.6C219.7 10.4 219.5 10.2 219.3 10C219.1 9.8 218.9 9.6 218.7 9.4C218.5 9.2 218.3 9.1 218.1 8.9C217.9 8.7 217.6 8.5 217.3 8.3C217.2 8.2 217 8.1 216.9 8C216.6 7.7 216.2 7.5 215.9 7.2C215.9 7.2 215.8 7.2 215.8 7.1C209.8 2.6 202.4 0 194.3 0H36.1C16.2 0 0 16.2 0 36.1V194.4C0 214.3 16.2 230.5 36.1 230.5H194.4C214.3 230.5 230.5 214.3 230.5 194.4V35.4C230.3 27.5 227.7 20.2 223.3 14.4ZM200.6 161.9C196.9 166.7 190.9 169.6 184.6 169.6C173.3 169.7 164 160.6 164 149.3C164 146.7 164.4 144.2 165.4 141.8V141.7L120.3 116.2C118 119.3 115 121.9 111.6 123.8V123.9L128.7 165.5C129.3 165.4 129.9 165.3 130.5 165.3C137.7 165.2 143.6 171.1 143.7 178.3C143.8 185.5 137.9 191.3 130.7 191.4C123.5 191.5 117.6 185.6 117.5 178.4C117.5 174.2 119.4 170.3 122.8 167.9V167.8L105.7 126.2C103.4 126.9 100.9 127.3 98.5 127.3C92.6 127.3 86.8 125.3 82.1 121.7L64.7 139.7V139.8C67.2 143.2 68.5 147.1 68.7 151.1C69 157.6 66.1 164.2 60.5 168.3C51.4 175 38.6 173.1 31.9 164.1C29.4 160.7 28.1 156.8 27.9 152.8C27.6 146.3 30.5 139.7 36.1 135.6C43.2 130.3 52.9 130.2 60.1 135.4L77.5 117.4V117.3C73.2 112.1 71.1 105.6 71.3 99.3C71.5 92.9 74 86.6 78.8 81.7V81.6L70.2 71.3C68.1 72.4 65.7 73 63.3 73.1C54.9 73.2 48 66.4 47.9 58C47.8 49.6 54.6 42.8 63 42.7C71.4 42.6 78.3 49.4 78.4 57.8C78.4 61.3 77.3 64.7 75.1 67.3V67.4L83.7 77.7C95.8 69.8 111.9 72.8 120.3 84.5L153.5 65.9V65.8C153 64.3 152.8 62.8 152.7 61.3C152.6 52.7 159.5 45.8 168.1 45.7C176.7 45.6 183.7 52.5 183.8 61.1C183.9 69.7 177 76.6 168.4 76.7C163.9 76.7 159.5 74.8 156.5 71.4L123.3 90V90.1C124.7 93.4 125.4 97 125.4 100.5C125.4 104 124.7 107.5 123.3 110.8V110.9L168.4 136.4C175.5 127.5 188.4 126 197.3 133.1C202.3 137.1 205 142.9 205.1 148.8C205.1 153.4 203.7 158 200.6 161.9Z" fill="#99CA3D"/>
<path d="M360 158C337.9 158 320.8 140.2 320.8 116.6C320.8 93.4 337.9 75.4 360 75.4C372.1 75.4 382.1 81.5 390.3 90.1L410 73C397.3 58.3 381 50 360.2 50C323.4 50 294.1 80.1 294.1 116.7C294.1 153.6 323.1 183.5 360.2 183.5C382.5 183.5 398.8 173.9 411.2 158.9L390.8 142.6C382.5 151.7 372.2 158 360 158Z" fill="white"/>
<path d="M466.8 89C440.3 89 419.5 109.3 419.5 136.2C419.5 163.1 440.3 183.4 466.8 183.4C493.3 183.4 514.1 163.2 514.1 136.2C514.1 109.2 493.3 89 466.8 89ZM466.8 160.3C453.8 160.3 444.7 150.1 444.7 136.2C444.7 122.4 453.4 112.2 466.8 112.2C480 112.2 488.7 122.4 488.7 136.2C488.7 150.1 480 160.3 466.8 160.3Z" fill="white"/>
<path d="M553.7 106.1C554.2 103.2 554.5 100.2 554.6 97.1998V91.0998H528.6V181.7H554.7V136.8C554.7 122 565.4 114.2 579 114.2V88.7998C567.1 88.7998 558.9 96.2998 553.7 106.1Z" fill="white"/>
<path d="M631.8 89C604 89 586.5 110.4 586.5 136.2C586.5 164 606 183.5 632.5 183.5C653.1 183.5 662.9 176.8 672.6 163.8L655.3 151.4C650.7 158.5 642.6 162.7 634 162.5C623.8 162.5 614.5 156.9 612.6 142H674.5V138.8C674.5 110.9 662.4 89 631.8 89ZM613.3 125.9C615.9 115.4 623.2 110.2 631.5 110.1C639.4 110.1 647.4 115.5 649.1 125.9H613.3Z" fill="white"/>
<path d="M819.299 106.1C819.799 103.2 820.099 100.2 820.199 97.1998V91.0998H794.199V181.7H820.199V136.8C820.199 122 830.999 114.2 844.499 114.2V88.7998C832.699 88.7998 824.499 96.2998 819.299 106.1Z" fill="white"/>
<path d="M886.801 91.0996H860.301V181.7H886.801V91.0996Z" fill="white"/>
<path d="M873.799 45.9004C864.499 46.0004 856.899 53.6004 856.699 63.0004C856.699 72.5004 864.299 80.1004 873.799 80.1004C883.299 80.1004 890.899 72.5004 890.899 63.0004C890.899 53.5004 883.199 45.9004 873.799 45.9004Z" fill="white"/>
<path d="M967.9 100.2C961 92.9004 951.5 88.9004 941.5 89.0004C916.4 89.0004 902.1 111.9 902.1 136C902.1 160.5 915.9 183.5 941.3 183.5C951.9 183.5 961.6 178.4 968.8 169.8V181.7H993.9V42.4004H967.9V100.2ZM948.2 160.4C934.9 160.4 928 149.5 928 136.3C928 123 934.6 112.2 948.2 112.2C960.2 112.2 968.2 122.3 968.2 136.2C968.2 148.6 960 160.5 948.2 160.4Z" fill="white"/>
<path d="M1069.7 174.5C1057.2 174.5 1051.6 178 1043.1 178C1030.9 178 1031.6 169.8 1039.6 163.1C1044.4 164.3 1049.2 164.8 1054.1 164.8C1076.9 164.8 1095.5 149.7 1095.5 127.1C1095.5 118.8 1092.6 110.8 1087.3 104.4L1098.1 93.5998L1082.9 79.2998L1071.4 92.4998C1066 90.2998 1060.1 89.0998 1054 89.2998C1031.2 89.2998 1012.4 104.5 1012.4 127.2C1012.4 137.8 1015.8 146.7 1021.9 153.2C1009.5 162.8 1006.7 178.8 1013.4 189.2C997.5 210.1 1007.1 240.6 1054.1 240.6C1116.7 240.6 1117 174.5 1069.7 174.5ZM1054.2 110.2C1064.4 110.2 1071.1 116.3 1071.1 127.1C1071.1 137.6 1064.4 143.4 1054.2 143.4C1044.3 143.4 1037.1 137.8 1037.1 127.1C1037.1 116.5 1043.8 110.2 1054.2 110.2ZM1054.2 218.5C1031.9 218.5 1025.8 209.2 1030.8 199.7C1032.4 199.9 1034 200 1035.7 200.2C1048.9 200.2 1058.9 195.9 1068.9 195.9C1086 195.9 1086.9 218.5 1054.2 218.5Z" fill="white"/>
<path d="M1152.9 89C1125 89 1107.6 110.4 1107.6 136.2C1107.6 164 1127 183.5 1153.6 183.5C1174.2 183.5 1184 176.8 1193.7 163.8L1176.4 151.4C1171.8 158.5 1163.7 162.8 1155.1 162.5C1144.9 162.5 1135.6 156.9 1133.8 142H1195.6V138.8C1195.6 110.9 1183.5 89 1152.9 89ZM1134.6 125.9C1137.2 115.4 1144.4 110.2 1152.8 110.1C1160.7 110.1 1168.7 115.5 1170.4 125.9H1134.6Z" fill="white"/>
<path d="M752.2 106.5C760.7 101.8 766.2 94.2004 766.2 82.4004C766.2 65.5004 754.8 52.4004 732.7 52.4004H692.5V181.4L730.2 181.3C764.3 181.3 778.9 164 778.9 141.5C778.9 124.4 768.6 112 752.2 106.5ZM718.7 71.2004H729C747.4 71.2004 744.3 98.7004 729 98.7004H718.7V71.2004ZM733.6 159.9H718.7V122.5H733.8C758.3 122.5 759.6 159.9 733.6 159.9Z" fill="white"/>
<path d="M1267.4 54.1004C1265.3 50.4004 1262.4 47.6004 1258.8 45.5004C1255.2 43.4004 1251.3 42.4004 1247.1 42.4004C1242.9 42.4004 1238.9 43.5004 1235.3 45.6004C1231.6 47.7004 1228.8 50.6004 1226.7 54.2004C1224.6 57.8004 1223.6 61.7004 1223.6 65.9004C1223.6 70.0004 1224.6 73.9004 1226.7 77.6004C1228.7 81.2004 1231.6 84.0004 1235.2 86.2004C1238.8 88.3004 1242.8 89.4004 1247.1 89.4004C1251.5 89.4004 1255.5 88.4004 1259.1 86.2004C1262.7 84.0004 1265.6 81.1004 1267.6 77.5004C1269.6 73.9004 1270.6 70.0004 1270.6 65.9004C1270.6 61.7004 1269.5 57.7004 1267.4 54.1004ZM1263.7 75.3004C1262.6 77.2004 1261.2 78.9004 1259.6 80.3004L1252.2 67.8004C1255.2 66.5004 1256.7 64.0004 1256.7 60.5004C1256.7 57.5004 1255.8 55.3004 1253.9 53.8004C1252.1 52.3004 1249.4 51.6004 1245.6 51.6004H1237.4V80.3004H1244.6V69.7004H1246.1L1251.7 80.3004H1259.5C1258.6 81.0004 1257.7 81.7004 1256.7 82.3004C1253.8 84.0004 1250.6 84.9004 1247.2 84.9004C1243.8 84.9004 1240.7 84.1004 1237.7 82.4004C1234.7 80.7004 1232.4 78.3004 1230.7 75.4004C1229 72.5004 1228.1 69.3004 1228.1 65.9004C1228.1 62.5004 1228.9 59.4004 1230.6 56.4004C1232.3 53.4004 1234.7 51.1004 1237.6 49.4004C1240.5 47.7004 1243.7 46.8004 1247.1 46.8004C1250.5 46.8004 1253.6 47.6004 1256.6 49.3004C1259.6 51.0004 1261.9 53.4004 1263.6 56.3004C1265.3 59.2004 1266.2 62.4004 1266.2 65.8004C1266.2 69.2004 1265.4 72.3004 1263.7 75.3004ZM1249.5 60.5004C1249.5 61.9004 1249.2 62.9004 1248.6 63.5004C1248 64.1004 1247 64.4004 1245.6 64.4004H1244.7V56.8004H1245.6C1247 56.8004 1248 57.0004 1248.6 57.6004C1249.2 58.2004 1249.5 59.1004 1249.5 60.5004Z" fill="white"/>
</g>
<defs>
<clipPath id="clip0_112_1342">
<rect width="1270.6" height="240.6" fill="white"/>
</clipPath>
</defs>
</svg>
